<?xml version="1.0" encoding="iso-8859-1"?>
<!-- Uploaded to: SVG Repo, www.svgrepo.com, Generator: SVG Repo Mixer Tools -->
<svg height="800px" width="800px" version="1.1" id="Layer_1" xmlns="http://www.w3.org/2000/svg" xmlns:xlink="http://www.w3.org/1999/xlink" 
	 viewBox="0 0 512 512" xml:space="preserve">
<circle style="fill:#79C9DB;" cx="256" cy="256" r="256"/>
<path style="fill:#99DBFF;" d="M256,512C114.615,512,0,397.385,0,256S114.615,0,256,0V512z"/>
<path style="fill:#924045;" d="M109.356,284.321l-92.377,63.504C53.892,443.844,146.98,512,256,512
	c86.035,0,162.154-42.444,208.57-107.53L168.689,278.385C149.199,270.08,126.815,272.319,109.356,284.321z"/>
<path style="fill:#C55C51;" d="M307.628,242.745L68.215,429.967C114.972,480.413,181.792,512,256,512
	c117.91,0,217.185-79.722,246.906-188.199L380.65,240.375C358.388,225.184,328.857,226.143,307.628,242.745z"/>
<path style="fill:#FD774F;" d="M256,283.117L68.215,429.967C114.972,480.413,181.792,512,256,512V283.117z"/>
<path style="fill:#D29500;" d="M265.622,369.098c-101.172,0-182.884-8.511-248.796-21.681C53.631,443.652,146.826,512,256,512
	c92.183,0,172.975-48.733,218.049-121.833C425.247,377.239,357.885,369.098,265.622,369.098z"/>
<path style="fill:#FEAB00;" d="M255.999,369.073c-96.746-0.522-175.364-8.905-239.174-21.655C53.631,443.652,146.826,512,256,512
	L255.999,369.073z"/>
</svg>